<svg xmlns="http://www.w3.org/2000/svg" viewBox="-0.02 0 738.22 739.87"><path d="M332.15,169.38c0-40.1,31.48-71.17,72.06-71.15,39.2,0,70.73,31.81,70.79,71.37.06,39.8-31.88,71.34-72.15,71.25C363.68,240.76,332.14,208.87,332.15,169.38Z" transform="translate(-23.44 -29)" style="fill:#fcb103"/><path d="M413.75,431.09H392.24c.92-13.67,1.54-27.37,2.87-41,.61-6.33-1.33-6.94-7-5.82-42.65,8.45-74.07-10.74-99.12-42.53-9.25-11.74-13.58-26.5-10.44-42.21,10.09,5.38,20.41,10.36,30.21,16.21q45.49,27.13,90.61,54.91c3.24,2,5.24,2.27,8.56.09q44.6-29.31,91-55.79c9.18-5.25,19.81-8.17,27.32-16.24.67,1.29,1.35,2.57,2,3.86,0,17.33-4.39,33.6-16.46,46.1-26.17,27.1-56.49,44.45-96.2,35.34-4.18-1-5.28.56-5,4.55C411.79,402.73,412.73,416.91,413.75,431.09Z" transform="translate(-23.44 -29)" style="fill:#52974a"/><path d="M526.24,298.72c-7.51,8.07-18.14,11-27.32,16.24q-46.34,26.54-91,55.79c-3.32,2.18-5.32,1.9-8.56-.09Q354.25,343,308.79,315.75c-9.8-5.85-20.12-10.83-30.21-16.21,8.71-9.29,20.17-12.57,32.18-13.58,40.52-3.4,77.48,23.29,89.12,63.89a61.34,61.34,0,0,0,3.09,9c3.22-14.34,8.45-27.71,17.74-38.91,23.27-28,52.07-41,88.76-31a21,21,0,0,0,3,.37C516.74,292.9,523,293.59,526.24,298.72Z" transform="translate(-23.44 -29)" style="fill:#61a852"/><path d="M392.24,29C596.67,29.09,762,195.32,761.63,400.62c-.4,201.77-164.75,368-367.81,368.23-203.94.24-370.89-163.07-370.38-371.27C23.93,193.84,189.69,29.38,392.24,29Zm.59,708.91c185.63,0,337-151.58,338.05-337.1C731.94,216.52,581.1,59.21,391.39,60c-184.88.79-335.92,151.65-337,336.86C53.37,586.44,207.57,738.29,392.83,737.91Z" transform="translate(-23.44 -29)" style="fill:#2e8484"/><circle cx="382.56" cy="518" r="118" style="fill:#33596e"/><path d="M337.3,641.21c-16.18.53-31.58,5.89-47.63,7.45-23.48,2.28-46.89,4.28-70.26-.76-2.29-.49-4.6-1-6.85-1.65-30-8.94-37.84-29.21-20.9-55.44,18.42-28.5,46.07-46.56,74.16-64,2.31-1.43,5.11-2.74,7,.55,2,3.51-.55,5.59-3,7.52-11.11,8.74-22.1,17.69-30.69,29-7.29,9.6-16.1,19.6-10.55,32.74,5.38,12.72,18.4,13.53,30,15,16.81,2.18,33.53.62,50.06-3,71.23-12,137-38.7,199.65-74,24.78-13,48.35-27.87,67.46-48.63,7.67-8.33,16.46-17.52,11.76-30.22-4.8-13-17.87-14.29-29.29-16.21-14.64-2.46-29.48-1.61-44.22.22-2.93.36-6.57,1.39-7.44-2.79s2.93-4.91,5.72-5.56c32.56-7.58,65.41-13,98.79-6.66,30.4,5.78,39.33,27.39,22.69,53.66-15.62,24.64-38.08,42.24-61.65,58.62-20.15,14-42,25.2-63,37.8-37.58,18.14-75.32,35.91-115.17,48.65C375.11,629.66,356.18,635.36,337.3,641.21Z" transform="translate(-23.44 -29)" style="fill:#f4a827"/></svg>