<svg xmlns="http://www.w3.org/2000/svg" viewBox="0 -0.05 465.77 469.38"><path d="M476,225.39c.31,53.6-9.29,92-28.94,128a229.32,229.32,0,0,1-57.61,69,227.26,227.26,0,0,1-110.94,49,234.15,234.15,0,0,1-80.57-1.64,227.86,227.86,0,0,1-71.16-27.09,232.93,232.93,0,0,1-50.2-39.13,237.14,237.14,0,0,1-32.85-42.72,223.15,223.15,0,0,1-23.24-51.56,244.15,244.15,0,0,1-9.66-86.77,230,230,0,0,1,22.09-84.6c20.46-42.77,51.54-76.15,92-100.69a223.46,223.46,0,0,1,67.28-27c26-5.87,52.34-6.59,78.87-4,25.18,2.48,48.83,10.05,71.56,20.64a224.24,224.24,0,0,1,57,38.72,236.3,236.3,0,0,1,53.8,71.95C468.62,169.24,476.17,202.79,476,225.39ZM19.78,239.14c-.21,125.37,101.64,225.09,223.55,225.2,124.65.12,226-103.56,223.38-230.12C464.27,116.39,365.9,10.46,235.5,14.73,118.39,18.55,19.76,115.69,19.78,239.14Z" transform="translate(-10.25 -4.79)" style="fill:#358786"/><path d="M243.34,14.48c123.14-1,220.67,101.15,223.31,218.21,3,131-99.54,229.8-219.3,231.77C120.5,466.55,20.82,363,19.58,242.33,18.28,116.14,119.92,14.09,243.34,14.48Zm.9,10.34C127.35,22.94,29.65,121.29,29.69,238.87c0,119.24,96.41,216.78,216.75,215.36C361,452.87,457.07,358.94,456.81,239.1,456.55,119.5,359.89,24.15,244.24,24.82Z" transform="translate(-10.25 -4.79)" style="fill:#358786"/><path d="M380.61,240.41c-.86,36.3-13.55,69.13-40.49,96.24a138.92,138.92,0,0,1-57.73,35.12c-3.41,1.07-5,.33-5.8-3.22-1.93-8.29-2-8.14,6.22-11,29.46-10.37,52-29.09,67.82-56.06a122.15,122.15,0,0,0,.1-123.34c-16.79-28.52-41.07-47.6-72.55-57.6-2.17-.69-3.53-1.25-2.78-4.22,2.52-10.06,2.46-10.33,12.39-6.79a135.21,135.21,0,0,1,42.43,24.06,140,140,0,0,1,45.48,70.33A137,137,0,0,1,380.61,240.41Z" transform="translate(-10.25 -4.79)" style="fill:#ecb151"/><path d="M106.23,247.7a136.42,136.42,0,0,1,33.59-98.19c14.45-16.41,31.6-29.2,52-37.37,4.29-1.72,8.73-3.07,13.11-4.56,2.42-.83,4-.1,4.4,2.56a7.6,7.6,0,0,0,.17.8c2.44,9.66,3,8-6.32,11.25a125.76,125.76,0,0,0-80.39,87,117,117,0,0,0-3.91,31c.5,25,7.14,48.29,21.6,69.13a131.44,131.44,0,0,0,41,38.12,111.33,111.33,0,0,0,26.58,11.41c3.32.95,4.43,2.35,2.52,5.49a9.37,9.37,0,0,0-1,2.67c-1.36,6.05-1.38,6.14-7.45,4.14-30.45-10-54.61-28.35-72.8-54.79-12-17.41-18.87-36.67-22.2-57.35C106.56,255.31,106.53,251.49,106.23,247.7Z" transform="translate(-10.25 -4.79)" style="fill:#ecb151"/><path d="M245.24,60.24c1.34,17.76.69,35.65,3.57,53.3,1.1,6.75,4.42,12.54,7.77,18.34,2,3.41,3.88,6.89,5.63,10.43,5.52,11.25,1,21.46-3.58,31.55a18.13,18.13,0,0,1-7.85,8.66c-8.14,4.36-17.49,1.59-22.15-6.64a58.83,58.83,0,0,1-7.36-25.24c-.23-3.34,1.91-6.43,3.3-9.52,3.84-8.55,10-16,12.29-25.29a106.66,106.66,0,0,0,2.68-20.11c.66-12.62.82-25.27,1.78-37.88.18-2.44.07-4.91.16-7.36,0-1.31-.32-3.19,1.45-3.34,2-.17,2.17,1.9,2.25,3.28C245.36,53.68,245.24,57,245.24,60.24Z" transform="translate(-10.25 -4.79)" style="fill:#ecb151"/><path d="M76.62,254c3.32-.76,4.44.8,4.88,4.76A159.09,159.09,0,0,0,118.42,345a167.71,167.71,0,0,0,57.8,44.46c12.84,6.07,26.55,9.75,40.57,12.18,1.78.3,4.7-.06,5.06,1.68.56,2.68,0,5.67-.52,8.47-.24,1.44-1.77.91-2.78.73-19.65-3.66-38.6-9.17-56.33-18.8a177,177,0,0,1-46.52-36.26,170.13,170.13,0,0,1-34.32-55.63C75.91,287.17,73,272,70.76,256.7,70.41,254.21,70.74,254.05,76.62,254Z" transform="translate(-10.25 -4.79)" style="fill:#358786"/><path d="M409.75,224.42c-3,.64-4.07-.53-4.6-4.44-4-29.7-14.68-56.71-33.34-80.47a168.3,168.3,0,0,0-59.52-48.2c-14.13-6.87-28.94-11.94-44.71-13.58-1.93-.2-3.14-.84-3.11-2.93,0-1.91,0-3.82.18-5.72s1.13-2.59,3.08-2.25c28.75,5,55.2,15.43,78.56,33.27a176.29,176.29,0,0,1,68.76,118.78C415.73,224.31,415.69,224.43,409.75,224.42Z" transform="translate(-10.25 -4.79)" style="fill:#358786"/><path d="M264.44,406.52c-1.21-4,2.06-4.42,5.06-4.91a157.09,157.09,0,0,0,49-16.3,166.22,166.22,0,0,0,53.11-44.67,162.19,162.19,0,0,0,30.11-62.94c1.51-6.31,2.89-12.73,2.85-19.34,0-4.32.68-4.42,7.06-4.47,4.17,0,3.48,2.63,3.25,4.94a169.93,169.93,0,0,1-14.35,53c-12.85,28.51-32.38,51.67-57.45,70-21.79,16-46.41,25.65-73,30.38C264.91,413.19,264.42,412.64,264.44,406.52Z" transform="translate(-10.25 -4.79)" style="fill:#358786"/><path d="M75.62,224.46c-4.79-.05-4.85-.06-4.2-5.24q8.2-65.43,57.21-109.56c22.31-20.07,48.06-33.8,77.64-39.92,4.13-.85,8.22-1.87,12.32-2.85,2-.49,3.19.09,3.07,2.39,0,.54,0,1.09,0,1.63.14,6,.13,6-5.74,7C186,83.36,159.48,95.84,136.6,116,110,139.5,92.34,168.23,84.41,202.83c-1.36,5.94-2.79,11.92-2.75,18.08C81.69,225.41,78.51,224.37,75.62,224.46Z" transform="translate(-10.25 -4.79)" style="fill:#358786"/><path d="M202.45,135.34c2.82-.33,3.31,1.16,3.67,3.61.88,5.92-.87,11.85.49,17.78a23.91,23.91,0,0,0,5.07,10c6.58,8,14.94,14.3,21.58,22.25a29.18,29.18,0,0,1,7.17,19.47c-.05,5.86,0,11.72,0,17.58,0,4.66-1.08,5.31-5.36,3.85-8.08-2.74-13.62-8.84-19.4-14.56-6.09-6-11.67-12.52-15.18-20.5a17.07,17.07,0,0,1-1.71-7.07q.09-24.12,0-48.24C198.77,136.81,199.13,134.82,202.45,135.34Z" transform="translate(-10.25 -4.79)" style="fill:#ecb151"/><path d="M246.55,214c.71-4.2-1.09-9.62,1-15A38.54,38.54,0,0,1,255.79,186c6.46-6.83,13.77-12.83,19.6-20.25a19.86,19.86,0,0,0,4.68-13.18c-.12-4.22.06-8.45,0-12.68-.05-2.7,0-4.71,3.76-4.74s3.37,2,3.53,4.45c.88,13.92-1.14,27.91.28,41.73.95,9.2-2.25,16.21-7.41,22.87a122.22,122.22,0,0,1-15.81,17.07,46.79,46.79,0,0,1-12.48,8.42c-4.39,1.86-5.31,1.18-5.35-3.55C246.53,222.48,246.55,218.79,246.55,214Z" transform="translate(-10.25 -4.79)" style="fill:#ecb151"/><path d="M198.59,282.2c0-6.51,0-13,0-19.54,0-1-1.05-2.17.46-2.82s2.5.35,3.43,1.46c3.06,3.63,6,7.4,9.31,10.77,6.2,6.3,12.66,12.34,19,18.52a30.66,30.66,0,0,1,9.64,23c0,5.72.1,11.45-.06,17.17-.13,4.73-1.29,5.45-5.81,4-16.94-5.6-27.63-17.81-34.72-33.49-2.41-5.34-.61-11.32-1-17,0-.68,0-1.36,0-2Z" transform="translate(-10.25 -4.79)" style="fill:#ecb151"/><path d="M246.53,318.67c.54-5.07-1.15-11.23,1.45-17.17a31.28,31.28,0,0,1,7.2-10.76c9.3-8.57,18.75-17,26.55-27.05,1.27-1.62,2.68-4.5,4.86-3.65,2.7,1,1,4,.94,6.17-.17,6.82-1,13.74,0,20.42,1.71,12.38-3.37,22-11,30.62C270,324.62,263,331.47,253,334.32c-5.76,1.66-6.45,1.33-6.49-4.46C246.51,326.45,246.53,323,246.53,318.67Z" transform="translate(-10.25 -4.79)" style="fill:#ecb151"/><path d="M240.37,268.13c0,3.55.08,7.1,0,10.64-.1,3.78-1.22,4.43-4.94,3.31-8-2.41-13.86-8.15-19.56-13.73A85.33,85.33,0,0,1,203,252c-2.77-4.48-4.5-9.15-4.29-14.63.31-8.31.1-16.64.15-25,0-1.15-.46-2.66,1.16-3.12,1.29-.38,1.87.78,2.54,1.64,8.07,10.18,17.78,18.71,27.54,27.18A28.92,28.92,0,0,1,240.37,260c.09,2.72,0,5.45,0,8.18Z" transform="translate(-10.25 -4.79)" style="fill:#ecb151"/><path d="M246.5,266.89c0-2.73.2-5.47,0-8.18-.65-7.55,2.43-13.57,7.64-18.59,10.09-9.72,21-18.6,29.8-29.64.61-.77,1.4-1.44,2.44-1.08s.9,1.57.9,2.47c0,7.66.1,15.36.38,23,.46,12.37-6.5,20.51-13.57,28.92-4.65,5.54-9.67,10.72-15.76,14.72a32.79,32.79,0,0,1-8.12,3.76c-2.73.87-3.77.26-3.67-2.67.14-4.23,0-8.46,0-12.68Z" transform="translate(-10.25 -4.79)" style="fill:#ecb151"/><path d="M248,386.63c0,14.18-.11,28.36.09,42.53,0,3.61-1.31,4.37-4.53,4.21-3-.14-5.56.36-5.51-4.2.25-27.53.27-55.06.36-82.59,0-.4,0-.81,0-1.22-.05-1.84-1-4.39,1.24-5a14.63,14.63,0,0,1,7.22.2c1.71.43,1.09,2.57,1.1,4,0,14,0,28.07,0,42.11Z" transform="translate(-10.25 -4.79)" style="fill:#ecb151"/></svg>